<svg xmlns="http://www.w3.org/2000/svg" width="833px" height="581px" viewBox="0 0 833 581" xmlns:xlink="http://www.w3.org/1999/xlink" style="overflow: auto; display: block; width: 833px; height: 581px;"><rect width="833px" height="581px" fill="white"/><clipPath id="ygc59_1"><rect x="25" y="25" width="782.559" height="530.42"/></clipPath><g clip-path="url(#ygc59_1)"><g style="pointer-events:visiblePainted" transform="matrix(1.3 0 0 1.3 -1007.9312500000001 789.48125)" image-rendering="auto" shape-rendering="auto"><g style="box-sizing:initial;"><g transform="translate(1009.6875 -564.0625)" class="y-group-node yfiles-expanded"><path d="M 190.921875 0H 377.84375A 4 4 0 0 1 381.84375 4V 246.125A 4 4 0 0 1 377.84375 250.125H 4A 4 4 0 0 1 0 246.125V 4A 4 4 0 0 1 4 0z" fill="rgb(255,255,255)" fill-opacity="1" transform="translate(0 0)" class="yfiles-group-node-tab-background"/><path d="M 190.921875 3H 376.84375A 2 2 0 0 1 378.84375 5V 245.125A 2 2 0 0 1 376.84375 247.125H 5A 2 2 0 0 1 3 245.125V 5A 2 2 0 0 1 5 3z" fill="rgb(255,255,255)" fill-opacity="1" transform="translate(0 0)" class="yfiles-content-transparent yfiles-group-node-content"/><path d="M 190.921875 0H 377.84375A 4 4 0 0 1 381.84375 4V 246.125A 4 4 0 0 1 377.84375 250.125H 4A 4 4 0 0 1 0 246.125V 4A 4 4 0 0 1 4 0z" fill="none" stroke="rgb(204,204,204)" stroke-opacity="1" stroke-width="2" stroke-linecap="square" stroke-linejoin="miter" stroke-miterlimit="10" transform="translate(0 0)" class="yfiles-group-node-stroke"/></g><g transform="translate(1172.609375 -583.0625)"><text font-family="Arial" font-size="12px" font-style="normal" font-weight="normal" text-decoration="none" text-anchor="start" fill="rgb(0,56,99)" fill-opacity="1" xml:space="preserve" transform="translate(0 0)"><tspan class="yfiles-label-p" dy="11px" x="0"><tspan class="yfiles-label-strong" style="font-weight: bold;">Hierarchy</tspan></tspan></text></g><g><path fill="none" stroke="rgb(0,0,0)" d="M 1097.8125,-466.75 L 1097.8125,-515.5625 L 1237.4375,-515.5625" stroke-opacity="1" stroke-width="1" stroke-linecap="butt" stroke-linejoin="miter" stroke-miterlimit="10"/><use xlink:href="#ygc59_0" transform="matrix(-0.75 0 0 -0.75 1240.65716991411 -515.5625)" style="pointer-events: none;"/></g><g><path fill="none" stroke="rgb(0,0,0)" d="M 1097.8125,-412.375 L 1097.8125,-363.5625 L 1237.4375,-363.5625" stroke-opacity="1" stroke-width="1" stroke-linecap="butt" stroke-linejoin="miter" stroke-miterlimit="10"/><use xlink:href="#ygc59_0" transform="matrix(-0.75 0 0 -0.75 1240.65716991411 -363.5625)" style="pointer-events: none;"/></g><g><path fill="none" stroke="rgb(0,0,0)" d="M 1159.5625,-439.5625 L 1237.4375,-439.5625" stroke-opacity="1" stroke-width="1" stroke-linecap="butt" stroke-linejoin="miter" stroke-miterlimit="10"/><use xlink:href="#ygc59_0" transform="matrix(-0.75 0 0 -0.75 1240.65716991411 -439.5625)" style="pointer-events: none;"/></g><g><path fill="none" stroke="rgb(0,0,0)" d="M 1242.1875,-515.5625 L 1097.8125,-515.5625 L 1097.8125,-471.5" stroke-opacity="1" stroke-width="1" stroke-linecap="butt" stroke-linejoin="miter" stroke-miterlimit="10"/><use xlink:href="#ygc59_0" transform="matrix(0 -0.75 0.75 0 1097.8125 -468.2803300858899)" style="pointer-events: none;"/></g><g><path fill="none" stroke="rgb(0,0,0)" d="M 1242.1875,-439.5625 L 1164.3125,-439.5625" stroke-opacity="1" stroke-width="1" stroke-linecap="butt" stroke-linejoin="miter" stroke-miterlimit="10"/><use xlink:href="#ygc59_0" transform="matrix(0.75 0 0 0.75 1161.09283008589 -439.5625)" style="pointer-events: none;"/></g><g><path fill="none" stroke="rgb(0,0,0)" d="M 1242.1875,-363.5625 L 1097.8125,-363.5625 L 1097.8125,-407.625" stroke-opacity="1" stroke-width="1" stroke-linecap="butt" stroke-linejoin="miter" stroke-miterlimit="10"/><use xlink:href="#ygc59_0" transform="matrix(0 0.75 -0.75 0 1097.8125 -410.8446699141101)" style="pointer-events: none;"/></g><path fill="rgb(0,106,179)" stroke="rgb(102,56,0)" d="M 0,10 C 0,4.47715250169206 4.47715250169206,0 10,0 L 113.5,0 C 119.02284749830794,0 123.5,4.47715250169206 123.5,10 L 123.5,44.375 C 123.5,49.89784749830794 119.02284749830794,54.375 113.5,54.375 L 10,54.375 C 4.47715250169206,54.375 0,49.89784749830794 0,44.375 Z" fill-opacity="1" stroke-opacity="0" stroke-width="1" stroke-linecap="butt" stroke-linejoin="miter" stroke-miterlimit="10" transform="translate(1036.0625 -466.75)"/><g transform="translate(1070.8125 -446.5625)"><text font-family="Arial" font-size="12px" font-style="normal" font-weight="normal" text-decoration="none" text-anchor="middle" fill="rgb(255,255,255)" fill-opacity="1" dy="0.9166666666666666em" transform="translate(27 0)">Managers</text></g><path fill="rgb(0,56,99)" stroke="rgb(102,56,0)" d="M 0,10 C 0,4.47715250169206 4.47715250169206,0 10,0 L 113.5,0 C 119.02284749830794,0 123.5,4.47715250169206 123.5,10 L 123.5,44.375 C 123.5,49.89784749830794 119.02284749830794,54.375 113.5,54.375 L 10,54.375 C 4.47715250169206,54.375 0,49.89784749830794 0,44.375 Z" fill-opacity="1" stroke-opacity="0" stroke-width="1" stroke-linecap="butt" stroke-linejoin="miter" stroke-miterlimit="10" transform="translate(1242.1875 -466.75)"/><g transform="translate(1276.9375 -446.5625)"><text font-family="Arial" font-size="12px" font-style="normal" font-weight="normal" text-decoration="none" text-anchor="middle" fill="rgb(255,255,255)" fill-opacity="1" dy="0.9166666666666666em" transform="translate(27 0)">Canvases</text></g><path fill="rgb(0,56,99)" stroke="rgb(102,56,0)" d="M 0,10 C 0,4.47715250169206 4.47715250169206,0 10,0 L 113.5,0 C 119.02284749830794,0 123.5,4.47715250169206 123.5,10 L 123.5,44.375 C 123.5,49.89784749830794 119.02284749830794,54.375 113.5,54.375 L 10,54.375 C 4.47715250169206,54.375 0,49.89784749830794 0,44.375 Z" fill-opacity="1" stroke-opacity="0" stroke-width="1" stroke-linecap="butt" stroke-linejoin="miter" stroke-miterlimit="10" transform="translate(1242.1875 -542.75)"/><g transform="translate(1269.9375 -522.5625)"><text font-family="Arial" font-size="12px" font-style="normal" font-weight="normal" text-decoration="none" text-anchor="middle" fill="rgb(255,255,255)" fill-opacity="1" dy="0.9166666666666666em" transform="translate(34 0)">Environment</text></g><path fill="rgb(0,56,99)" stroke="rgb(102,56,0)" d="M 0,10 C 0,4.47715250169206 4.47715250169206,0 10,0 L 113.5,0 C 119.02284749830794,0 123.5,4.47715250169206 123.5,10 L 123.5,44.375 C 123.5,49.89784749830794 119.02284749830794,54.375 113.5,54.375 L 10,54.375 C 4.47715250169206,54.375 0,49.89784749830794 0,44.375 Z" fill-opacity="1" stroke-opacity="0" stroke-width="1" stroke-linecap="butt" stroke-linejoin="miter" stroke-miterlimit="10" transform="translate(1242.1875 -390.75)"/><g transform="translate(1287.9375 -370.5625)"><text font-family="Arial" font-size="12px" font-style="normal" font-weight="normal" text-decoration="none" text-anchor="middle" fill="rgb(255,255,255)" fill-opacity="1" dy="0.9166666666666666em" transform="translate(16 0)">Setup</text></g><g transform="translate(801.140625 -564.0625)" class="y-group-node yfiles-expanded"><path d="M 90.546875 0H 177.09375A 4 4 0 0 1 181.09375 4V 246.125A 4 4 0 0 1 177.09375 250.125H 4A 4 4 0 0 1 0 246.125V 4A 4 4 0 0 1 4 0z" fill="rgb(255,255,255)" fill-opacity="1" transform="translate(0 0)" class="yfiles-group-node-tab-background"/><path d="M 90.546875 3H 176.09375A 2 2 0 0 1 178.09375 5V 245.125A 2 2 0 0 1 176.09375 247.125H 5A 2 2 0 0 1 3 245.125V 5A 2 2 0 0 1 5 3z" fill="rgb(255,255,255)" fill-opacity="1" transform="translate(0 0)" class="yfiles-content-transparent yfiles-group-node-content"/><path d="M 90.546875 0H 177.09375A 4 4 0 0 1 181.09375 4V 246.125A 4 4 0 0 1 177.09375 250.125H 4A 4 4 0 0 1 0 246.125V 4A 4 4 0 0 1 4 0z" fill="none" stroke="rgb(204,204,204)" stroke-opacity="1" stroke-width="2" stroke-linecap="square" stroke-linejoin="miter" stroke-miterlimit="10" transform="translate(0 0)" class="yfiles-group-node-stroke"/></g><g transform="translate(870.6875 -583.0625)"><text font-family="Arial" font-size="12px" font-style="normal" font-weight="normal" text-decoration="none" text-anchor="start" fill="rgb(0,56,99)" fill-opacity="1" xml:space="preserve" transform="translate(0 0)"><tspan class="yfiles-label-p" dy="11px" x="0"><tspan class="yfiles-label-strong" style="font-weight: bold;">Project</tspan></tspan></text></g><path fill="rgb(0,129,143)" stroke="rgb(102,56,0)" d="M 0,10 C 0,4.47715250169206 4.47715250169206,0 10,0 L 113.5,0 C 119.02284749830794,0 123.5,4.47715250169206 123.5,10 L 123.5,44.375 C 123.5,49.89784749830794 119.02284749830794,54.375 113.5,54.375 L 10,54.375 C 4.47715250169206,54.375 0,49.89784749830794 0,44.375 Z" fill-opacity="1" stroke-opacity="0" stroke-width="1" stroke-linecap="butt" stroke-linejoin="miter" stroke-miterlimit="10" transform="translate(831.515625 -540.375)"/><g transform="translate(872.265625 -520.1875)"><text font-family="Arial" font-size="12px" font-style="normal" font-weight="normal" text-decoration="none" text-anchor="middle" fill="rgb(255,255,255)" fill-opacity="1" dy="0.9166666666666666em" transform="translate(21 0)">Prefabs</text></g><path fill="rgb(0,129,143)" stroke="rgb(102,56,0)" d="M 0,10 C 0,4.47715250169206 4.47715250169206,0 10,0 L 113.5,0 C 119.02284749830794,0 123.5,4.47715250169206 123.5,10 L 123.5,44.375 C 123.5,49.89784749830794 119.02284749830794,54.375 113.5,54.375 L 10,54.375 C 4.47715250169206,54.375 0,49.89784749830794 0,44.375 Z" fill-opacity="1" stroke-opacity="0" stroke-width="1" stroke-linecap="butt" stroke-linejoin="miter" stroke-miterlimit="10" transform="translate(831.515625 -466.75)"/><g transform="translate(864.265625 -446.5625)"><text font-family="Arial" font-size="12px" font-style="normal" font-weight="normal" text-decoration="none" text-anchor="middle" fill="rgb(255,255,255)" fill-opacity="1" dy="0.9166666666666666em" transform="translate(29 0)">Resources</text></g><path fill="rgb(0,129,143)" stroke="rgb(102,56,0)" d="M 0,10 C 0,4.47715250169206 4.47715250169206,0 10,0 L 113.5,0 C 119.02284749830794,0 123.5,4.47715250169206 123.5,10 L 123.5,44.375 C 123.5,49.89784749830794 119.02284749830794,54.375 113.5,54.375 L 10,54.375 C 4.47715250169206,54.375 0,49.89784749830794 0,44.375 Z" fill-opacity="1" stroke-opacity="0" stroke-width="1" stroke-linecap="butt" stroke-linejoin="miter" stroke-miterlimit="10" transform="translate(831.515625 -393.125)"/><g transform="translate(887.765625 -372.9375)"><text font-family="Arial" font-size="12px" font-style="normal" font-weight="normal" text-decoration="none" text-anchor="middle" fill="rgb(255,255,255)" fill-opacity="1" dy="0.9166666666666666em" transform="translate(5.5 0)">...</text></g><g transform="translate(799.5625 -287.4375)" class="y-group-node yfiles-expanded"><path d="M 167.875 0H 331.75A 4 4 0 0 1 335.75 4V 98.390625A 4 4 0 0 1 331.75 102.390625H 4A 4 4 0 0 1 0 98.390625V 4A 4 4 0 0 1 4 0z" fill="rgb(255,255,255)" fill-opacity="1" transform="translate(0 0)" class="yfiles-group-node-tab-background"/><path d="M 167.875 3H 330.75A 2 2 0 0 1 332.75 5V 97.390625A 2 2 0 0 1 330.75 99.390625H 5A 2 2 0 0 1 3 97.390625V 5A 2 2 0 0 1 5 3z" fill="rgb(255,255,255)" fill-opacity="1" transform="translate(0 0)" class="yfiles-content-transparent yfiles-group-node-content"/><path d="M 167.875 0H 331.75A 4 4 0 0 1 335.75 4V 98.390625A 4 4 0 0 1 331.75 102.390625H 4A 4 4 0 0 1 0 98.390625V 4A 4 4 0 0 1 4 0z" fill="none" stroke="rgb(171,171,171)" stroke-opacity="1" stroke-width="2" stroke-dasharray="2,4" stroke-dashoffset="1" stroke-linecap="square" stroke-linejoin="miter" stroke-miterlimit="10" transform="translate(0 0)" class="yfiles-group-node-stroke"/></g><g><path fill="none" stroke="rgb(0,0,0)" d="M 835.8125,-235.921875 L 868.0625,-235.921875" stroke-opacity="1" stroke-width="1" stroke-linecap="butt" stroke-linejoin="miter" stroke-miterlimit="10"/><use xlink:href="#ygc59_0" transform="matrix(-0.75 0 0 -0.75 871.2821699141101 -235.921875)" style="pointer-events: none;"/></g><g><path fill="none" stroke="rgb(0,0,0)" d="M 835.8125,-206.671875 L 868.0625,-206.671875" stroke-opacity="1" stroke-width="1" stroke-linecap="butt" stroke-linejoin="miter" stroke-miterlimit="10"/><use xlink:href="#ygc59_0" transform="matrix(-0.75 0 0 -0.75 871.2821699141101 -206.671875)" style="pointer-events: none;"/></g><g><path fill="none" stroke="rgb(0,0,0)" d="M 872.8125,-206.671875 L 840.5625,-206.671875" stroke-opacity="1" stroke-width="1" stroke-linecap="butt" stroke-linejoin="miter" stroke-miterlimit="10"/><use xlink:href="#ygc59_0" transform="matrix(0.75 0 0 0.75 837.3428300858899 -206.671875)" style="pointer-events: none;"/></g><rect fill="rgb(255,140,0)" stroke="rgb(255,255,255)" stroke-opacity="0" stroke-width="1" stroke-linecap="butt" stroke-linejoin="miter" stroke-miterlimit="10" fill-opacity="0" x="807.562" y="-279.797" width="65.25" height="29.25" rx="0" ry="0"/><g transform="translate(816.6875 -272.171875)"><text font-family="Arial" font-size="12px" font-style="normal" font-weight="normal" text-decoration="none" text-anchor="middle" fill="rgb(0,56,99)" fill-opacity="1" xml:space="preserve" transform="translate(23.5 0)"><tspan class="yfiles-label-p" dy="11px" x="0"><tspan class="yfiles-label-strong" style="font-weight: bold;">Legend:</tspan></tspan></text></g><rect fill="rgb(255,140,0)" stroke="rgb(255,255,255)" stroke-opacity="0" stroke-width="1" stroke-linecap="butt" stroke-linejoin="miter" stroke-miterlimit="10" fill-opacity="0" x="807.562" y="-250.547" width="28.25" height="29.25" rx="0" ry="0"/><g transform="translate(817.1875 -242.921875)"><text font-family="Arial" font-size="12px" font-style="normal" font-weight="normal" text-decoration="none" text-anchor="middle" fill="rgb(0,0,0)" fill-opacity="1" dy="0.9166666666666666em" transform="translate(4.5 0)">A</text></g><rect fill="rgb(255,140,0)" stroke="rgb(255,255,255)" stroke-opacity="0" stroke-width="1" stroke-linecap="butt" stroke-linejoin="miter" stroke-miterlimit="10" fill-opacity="0" x="872.812" y="-250.547" width="28.25" height="29.25" rx="0" ry="0"/><g transform="translate(882.4375 -242.921875)"><text font-family="Arial" font-size="12px" font-style="normal" font-weight="normal" text-decoration="none" text-anchor="middle" fill="rgb(0,0,0)" fill-opacity="1" dy="0.9166666666666666em" transform="translate(4.5 0)">B</text></g><rect fill="rgb(255,140,0)" stroke="rgb(255,255,255)" stroke-opacity="0" stroke-width="1" stroke-linecap="butt" stroke-linejoin="miter" stroke-miterlimit="10" fill-opacity="0" x="917.312" y="-250.547" width="190.75" height="29.25" rx="0" ry="0"/><g transform="translate(917.3125 -242.921875)"><text font-family="Arial" font-size="12px" font-style="normal" font-weight="normal" text-decoration="none" text-anchor="start" fill="rgb(0,0,0)" fill-opacity="1" dy="0.9166666666666666em" transform="translate(0 0)">A has access to B</text></g><rect fill="rgb(255,140,0)" stroke="rgb(255,255,255)" stroke-opacity="0" stroke-width="1" stroke-linecap="butt" stroke-linejoin="miter" stroke-miterlimit="10" fill-opacity="0" x="807.562" y="-221.297" width="28.25" height="29.25" rx="0" ry="0"/><g transform="translate(817.1875 -213.671875)"><text font-family="Arial" font-size="12px" font-style="normal" font-weight="normal" text-decoration="none" text-anchor="middle" fill="rgb(0,0,0)" fill-opacity="1" dy="0.9166666666666666em" transform="translate(4.5 0)">A</text></g><rect fill="rgb(255,140,0)" stroke="rgb(255,255,255)" stroke-opacity="0" stroke-width="1" stroke-linecap="butt" stroke-linejoin="miter" stroke-miterlimit="10" fill-opacity="0" x="872.812" y="-221.297" width="28.25" height="29.25" rx="0" ry="0"/><g transform="translate(882.4375 -213.671875)"><text font-family="Arial" font-size="12px" font-style="normal" font-weight="normal" text-decoration="none" text-anchor="middle" fill="rgb(0,0,0)" fill-opacity="1" dy="0.9166666666666666em" transform="translate(4.5 0)">B</text></g><rect fill="rgb(255,140,0)" stroke="rgb(255,255,255)" stroke-opacity="0" stroke-width="1" stroke-linecap="butt" stroke-linejoin="miter" stroke-miterlimit="10" fill-opacity="0" x="917.312" y="-221.297" width="190.75" height="29.25" rx="0" ry="0"/><g transform="translate(917.3125 -213.671875)"><text font-family="Arial" font-size="12px" font-style="normal" font-weight="normal" text-decoration="none" text-anchor="start" fill="rgb(0,0,0)" fill-opacity="1" dy="0.9166666666666666em" xml:space="preserve" transform="translate(0 0)">A and B have access  to each other</text></g><g><path fill="none" stroke="rgb(0,0,0)" d="M 1036.0625,-439.5525802275215 L 986.9841336832452,-439.0578498506108" stroke-opacity="1" stroke-width="1" stroke-linecap="butt" stroke-linejoin="miter" stroke-miterlimit="10"/><use xlink:href="#ygc59_0" transform="matrix(0.7499618973545067 -0.007559928334863708 0.007559928334863708 0.7499618973545067 983.7646273397236 -439.02539588552736)" style="pointer-events: none;"/></g></g></g></g><defs><path fill="rgb(0,0,0)" stroke="rgb(0,0,0)" d="M 5,-5 L 0,0 L 5,5 Z" fill-opacity="1" stroke-opacity="1" stroke-width="1" stroke-linecap="butt" stroke-linejoin="miter" stroke-miterlimit="10" id="ygc59_0"/></defs></svg>