<svg xmlns="http://www.w3.org/2000/svg" width="761px" height="741px" viewBox="0 0 761 741" xmlns:xlink="http://www.w3.org/1999/xlink" style="overflow: auto; display: block; width: 761px; height: 741px;"><rect width="761px" height="741px" fill="white"/><clipPath id="ygc50_1"><rect x="25" y="25" width="710.348" height="690.991"/></clipPath><g clip-path="url(#ygc50_1)"><g style="pointer-events:visiblePainted" transform="matrix(1.3 0 0 1.3 -1290.68125 1179.48125)" image-rendering="auto" shape-rendering="auto"><g style="box-sizing:initial;"><g transform="translate(1018.1875 -592.6875)" class="y-group-node yfiles-expanded"><path d="M 174 0H 344A 4 4 0 0 1 348 4V 227.15625A 4 4 0 0 1 344 231.15625H 4A 4 4 0 0 1 0 227.15625V 4A 4 4 0 0 1 4 0z" fill="rgb(255,255,255)" fill-opacity="1" transform="translate(0 0)" class="yfiles-group-node-tab-background"/><path d="M 174 3H 343A 2 2 0 0 1 345 5V 226.15625A 2 2 0 0 1 343 228.15625H 5A 2 2 0 0 1 3 226.15625V 5A 2 2 0 0 1 5 3z" fill="rgb(255,255,255)" fill-opacity="1" transform="translate(0 0)" class="yfiles-content-transparent yfiles-group-node-content"/><path d="M 174 0H 344A 4 4 0 0 1 348 4V 227.15625A 4 4 0 0 1 344 231.15625H 4A 4 4 0 0 1 0 227.15625V 4A 4 4 0 0 1 4 0z" fill="none" stroke="rgb(171,171,171)" stroke-opacity="1" stroke-width="2" stroke-dasharray="2,4" stroke-dashoffset="1" stroke-linecap="square" stroke-linejoin="miter" stroke-miterlimit="10" transform="translate(0 0)" class="yfiles-group-node-stroke"/></g><g><path fill="none" stroke="rgb(0,0,0)" d="M 1061.4375,-541.171875 L 1086.6875,-541.171875" stroke-opacity="1" stroke-width="1" stroke-dasharray="2,2" stroke-dashoffset="1" stroke-linecap="square" stroke-linejoin="miter" stroke-miterlimit="10"/><use xlink:href="#ygc50_0" transform="matrix(-0.75 0 0 -0.75 1089.90716991411 -541.171875)" style="pointer-events: none;"/></g><rect fill="rgb(255,140,0)" stroke="rgb(255,255,255)" stroke-opacity="0" stroke-width="1" stroke-linecap="butt" stroke-linejoin="miter" stroke-miterlimit="10" fill-opacity="0" x="1026.19" y="-585.047" width="65.25" height="29.25" rx="0" ry="0"/><g transform="translate(1035.3125 -577.421875)"><text font-family="Arial" font-size="12px" font-style="normal" font-weight="normal" text-decoration="none" text-anchor="middle" fill="rgb(0,56,99)" fill-opacity="1" xml:space="preserve" transform="translate(23.5 0)"><tspan class="yfiles-label-p" dy="11px" x="0"><tspan class="yfiles-label-strong" style="font-weight: bold;">Legend:</tspan></tspan></text></g><rect fill="rgb(255,140,0)" stroke="rgb(255,255,255)" stroke-opacity="0" stroke-width="1" stroke-linecap="butt" stroke-linejoin="miter" stroke-miterlimit="10" fill-opacity="0" x="1033.19" y="-555.797" width="28.25" height="29.25" rx="0" ry="0"/><g transform="translate(1042.8125 -548.171875)"><text font-family="Arial" font-size="12px" font-style="normal" font-weight="normal" text-decoration="none" text-anchor="middle" fill="rgb(0,0,0)" fill-opacity="1" dy="0.9166666666666666em" transform="translate(4.5 0)">A</text></g><rect fill="rgb(255,140,0)" stroke="rgb(255,255,255)" stroke-opacity="0" stroke-width="1" stroke-linecap="butt" stroke-linejoin="miter" stroke-miterlimit="10" fill-opacity="0" x="1091.44" y="-555.797" width="28.25" height="29.25" rx="0" ry="0"/><g transform="translate(1101.0625 -548.171875)"><text font-family="Arial" font-size="12px" font-style="normal" font-weight="normal" text-decoration="none" text-anchor="middle" fill="rgb(0,0,0)" fill-opacity="1" dy="0.9166666666666666em" transform="translate(4.5 0)">B</text></g><rect fill="rgb(255,140,0)" stroke="rgb(255,255,255)" stroke-opacity="0" stroke-width="1" stroke-linecap="butt" stroke-linejoin="miter" stroke-miterlimit="10" fill-opacity="0" x="1135.94" y="-555.797" width="123.5" height="29.25" rx="0" ry="0"/><g transform="translate(1135.9375 -548.171875)"><text font-family="Arial" font-size="12px" font-style="normal" font-weight="normal" text-decoration="none" text-anchor="start" fill="rgb(0,0,0)" fill-opacity="1" dy="0.9166666666666666em" transform="translate(0 0)">A references B</text></g><rect fill="rgb(255,140,0)" stroke="rgb(255,255,255)" stroke-opacity="0" stroke-width="1" stroke-linecap="butt" stroke-linejoin="miter" stroke-miterlimit="10" fill-opacity="0" x="1135.94" y="-526.547" width="123.5" height="29.25" rx="0" ry="0"/><g transform="translate(1135.9375 -518.921875)"><text font-family="Arial" font-size="12px" font-style="normal" font-weight="normal" text-decoration="none" text-anchor="start" fill="rgb(0,0,0)" fill-opacity="1" dy="0.9166666666666666em" transform="translate(0 0)">Script Component of a GameObject</text></g><path fill="rgb(0,106,179)" stroke="rgb(102,56,0)" d="M 0,8.43359375 C 0,3.775848535606702 3.775848535606702,0 8.43359375,0 L 78.06640625,0 C 82.7241514643933,0 86.5,3.775848535606702 86.5,8.43359375 C 86.5,13.091338964393298 82.7241514643933,16.8671875 78.06640625,16.8671875 L 8.43359375,16.8671875 C 3.775848535606702,16.8671875 0,13.091338964393298 0,8.43359375 Z" fill-opacity="1" stroke-opacity="0" stroke-width="1" stroke-linecap="butt" stroke-linejoin="miter" stroke-miterlimit="10" transform="translate(1033.1875 -520.35546875)"/><rect fill="rgb(255,140,0)" stroke="rgb(255,255,255)" stroke-opacity="0" stroke-width="1" stroke-linecap="butt" stroke-linejoin="miter" stroke-miterlimit="10" fill-opacity="0" x="1135.94" y="-497.297" width="123.5" height="29.25" rx="0" ry="0"/><g transform="translate(1135.9375 -489.671875)"><text font-family="Arial" font-size="12px" font-style="normal" font-weight="normal" text-decoration="none" text-anchor="start" fill="rgb(0,0,0)" fill-opacity="1" dy="0.9166666666666666em" transform="translate(0 0)">ScriptableObject (in memory)</text></g><path fill="rgb(220,127,20)" stroke="rgb(102,56,0)" d="M 0,8.43359375 C 0,3.775848535606702 3.775848535606702,0 8.43359375,0 L 78.06640625,0 C 82.7241514643933,0 86.5,3.775848535606702 86.5,8.43359375 C 86.5,13.091338964393298 82.7241514643933,16.8671875 78.06640625,16.8671875 L 8.43359375,16.8671875 C 3.775848535606702,16.8671875 0,13.091338964393298 0,8.43359375 Z" fill-opacity="1" stroke-opacity="0" stroke-width="1" stroke-linecap="butt" stroke-linejoin="miter" stroke-miterlimit="10" transform="translate(1033.1875 -491.10546875)"/><rect fill="rgb(255,140,0)" stroke="rgb(255,255,255)" stroke-opacity="0" stroke-width="1" stroke-linecap="butt" stroke-linejoin="miter" stroke-miterlimit="10" fill-opacity="0" x="1135.94" y="-468.047" width="123.5" height="29.25" rx="0" ry="0"/><g transform="translate(1135.9375 -460.421875)"><text font-family="Arial" font-size="12px" font-style="normal" font-weight="normal" text-decoration="none" text-anchor="start" fill="rgb(0,0,0)" fill-opacity="1" dy="0.9166666666666666em" transform="translate(0 0)">File in memory</text></g><path fill="rgb(43,177,111)" stroke="rgb(102,56,0)" d="M 0,8.43359375 C 0,3.775848535606702 3.775848535606702,0 8.43359375,0 L 78.06640625,0 C 82.7241514643933,0 86.5,3.775848535606702 86.5,8.43359375 C 86.5,13.091338964393298 82.7241514643933,16.8671875 78.06640625,16.8671875 L 8.43359375,16.8671875 C 3.775848535606702,16.8671875 0,13.091338964393298 0,8.43359375 Z" fill-opacity="1" stroke-opacity="0" stroke-width="1" stroke-linecap="butt" stroke-linejoin="miter" stroke-miterlimit="10" transform="translate(1033.1875 -461.85546875)"/><path fill="rgb(0,106,179)" stroke="rgb(102,56,0)" d="M 0,10 C 0,4.47715250169206 4.47715250169206,0 10,0 L 113.5,0 C 119.02284749830794,0 123.5,4.47715250169206 123.5,10 L 123.5,44.375 C 123.5,49.89784749830794 119.02284749830794,54.375 113.5,54.375 L 10,54.375 C 4.47715250169206,54.375 0,49.89784749830794 0,44.375 Z" fill-opacity="1" stroke-opacity="0" stroke-width="1" stroke-linecap="butt" stroke-linejoin="miter" stroke-miterlimit="10" transform="translate(1033.1875 -429.03125)"/><g transform="translate(1060.9375 -417.84375)"><text font-family="Arial" font-size="12px" font-style="normal" font-weight="normal" text-decoration="none" text-anchor="middle" fill="rgb(255,255,255)" fill-opacity="1" transform="translate(34 0)"><tspan dy="0.9166666666666666em" x="0">Description</tspan><tspan dy="1.5em" x="0">(Class/Type)</tspan></text></g><g transform="translate(1017.0625 -864.0625)" class="y-group-node yfiles-expanded"><path d="M 89.625 0H 175.25A 4 4 0 0 1 179.25 4V 246.125A 4 4 0 0 1 175.25 250.125H 4A 4 4 0 0 1 0 246.125V 4A 4 4 0 0 1 4 0z" fill="rgb(255,255,255)" fill-opacity="1" transform="translate(0 0)" class="yfiles-group-node-tab-background"/><path d="M 89.625 3H 174.25A 2 2 0 0 1 176.25 5V 245.125A 2 2 0 0 1 174.25 247.125H 5A 2 2 0 0 1 3 245.125V 5A 2 2 0 0 1 5 3z" fill="rgb(255,255,255)" fill-opacity="1" transform="translate(0 0)" class="yfiles-content-transparent yfiles-group-node-content"/><path d="M 89.625 0H 175.25A 4 4 0 0 1 179.25 4V 246.125A 4 4 0 0 1 175.25 250.125H 4A 4 4 0 0 1 0 246.125V 4A 4 4 0 0 1 4 0z" fill="none" stroke="rgb(204,204,204)" stroke-opacity="1" stroke-width="2" stroke-linecap="square" stroke-linejoin="miter" stroke-miterlimit="10" transform="translate(0 0)" class="yfiles-group-node-stroke"/></g><g transform="translate(1088.6875 -883.0625)"><text font-family="Arial" font-size="12px" font-style="normal" font-weight="normal" text-decoration="none" text-anchor="start" fill="rgb(0,56,99)" fill-opacity="1" xml:space="preserve" transform="translate(0 0)"><tspan class="yfiles-label-p" dy="11px" x="0"><tspan class="yfiles-label-strong" style="font-weight: bold;">Scene</tspan></tspan></text></g><g transform="translate(1036.8125 -835.125)" class="y-group-node yfiles-expanded"><path d="M 68.75 0H 133.5A 4 4 0 0 1 137.5 4V 79.5625A 4 4 0 0 1 133.5 83.5625H 4A 4 4 0 0 1 0 79.5625V 4A 4 4 0 0 1 4 0z" fill="rgb(255,255,255)" fill-opacity="1" transform="translate(0 0)" class="yfiles-group-node-tab-background"/><path d="M 68.75 3H 132.5A 2 2 0 0 1 134.5 5V 78.5625A 2 2 0 0 1 132.5 80.5625H 5A 2 2 0 0 1 3 78.5625V 5A 2 2 0 0 1 5 3z" fill="rgb(255,255,255)" fill-opacity="1" transform="translate(0 0)" class="yfiles-content-transparent yfiles-group-node-content"/><path d="M 68.75 0H 133.5A 4 4 0 0 1 137.5 4V 79.5625A 4 4 0 0 1 133.5 83.5625H 4A 4 4 0 0 1 0 79.5625V 4A 4 4 0 0 1 4 0z" fill="none" stroke="rgb(204,204,204)" stroke-opacity="1" stroke-width="2" stroke-linecap="square" stroke-linejoin="miter" stroke-miterlimit="10" transform="translate(0 0)" class="yfiles-group-node-stroke"/></g><g transform="translate(1063.0625 -854.125)"><text font-family="Arial" font-size="12px" font-style="normal" font-weight="normal" text-decoration="none" text-anchor="start" fill="rgb(0,56,99)" fill-opacity="1" xml:space="preserve" transform="translate(0 0)"><tspan class="yfiles-label-p" dy="11px" x="0"><tspan class="yfiles-label-strong" style="font-weight: bold;">Building Block</tspan></tspan></text></g><path fill="rgb(0,106,179)" stroke="rgb(102,56,0)" d="M 0,10 C 0,4.47715250169206 4.47715250169206,0 10,0 L 113.5,0 C 119.02284749830794,0 123.5,4.47715250169206 123.5,10 L 123.5,44.375 C 123.5,49.89784749830794 119.02284749830794,54.375 113.5,54.375 L 10,54.375 C 4.47715250169206,54.375 0,49.89784749830794 0,44.375 Z" fill-opacity="1" stroke-opacity="0" stroke-width="1" stroke-linecap="butt" stroke-linejoin="miter" stroke-miterlimit="10" transform="translate(1043.8125 -819.015625)"/><g transform="translate(1045.5625 -807.828125)"><text font-family="Arial" font-size="12px" font-style="normal" font-weight="normal" text-decoration="none" text-anchor="middle" fill="rgb(255,255,255)" fill-opacity="1" transform="translate(60 0)"><tspan dy="0.9166666666666666em" x="0">Placed Block</tspan><tspan dy="1.5em" x="0">(BuildingBlockDisplay)</tspan></text></g><g transform="translate(1036.8125 -716.625)" class="y-group-node yfiles-expanded"><path d="M 68.75 0H 133.5A 4 4 0 0 1 137.5 4V 79.5625A 4 4 0 0 1 133.5 83.5625H 4A 4 4 0 0 1 0 79.5625V 4A 4 4 0 0 1 4 0z" fill="rgb(255,255,255)" fill-opacity="1" transform="translate(0 0)" class="yfiles-group-node-tab-background"/><path d="M 68.75 3H 132.5A 2 2 0 0 1 134.5 5V 78.5625A 2 2 0 0 1 132.5 80.5625H 5A 2 2 0 0 1 3 78.5625V 5A 2 2 0 0 1 5 3z" fill="rgb(255,255,255)" fill-opacity="1" transform="translate(0 0)" class="yfiles-content-transparent yfiles-group-node-content"/><path d="M 68.75 0H 133.5A 4 4 0 0 1 137.5 4V 79.5625A 4 4 0 0 1 133.5 83.5625H 4A 4 4 0 0 1 0 79.5625V 4A 4 4 0 0 1 4 0z" fill="none" stroke="rgb(204,204,204)" stroke-opacity="1" stroke-width="2" stroke-linecap="square" stroke-linejoin="miter" stroke-miterlimit="10" transform="translate(0 0)" class="yfiles-group-node-stroke"/></g><g transform="translate(1078.0625 -735.625)"><text font-family="Arial" font-size="12px" font-style="normal" font-weight="normal" text-decoration="none" text-anchor="start" fill="rgb(0,56,99)" fill-opacity="1" xml:space="preserve" transform="translate(0 0)"><tspan class="yfiles-label-p" dy="11px" x="0"><tspan class="yfiles-label-strong" style="font-weight: bold;">Inventory</tspan></tspan></text></g><path fill="rgb(0,106,179)" stroke="rgb(102,56,0)" d="M 0,10 C 0,4.47715250169206 4.47715250169206,0 10,0 L 113.5,0 C 119.02284749830794,0 123.5,4.47715250169206 123.5,10 L 123.5,44.375 C 123.5,49.89784749830794 119.02284749830794,54.375 113.5,54.375 L 10,54.375 C 4.47715250169206,54.375 0,49.89784749830794 0,44.375 Z" fill-opacity="1" stroke-opacity="0" stroke-width="1" stroke-linecap="butt" stroke-linejoin="miter" stroke-miterlimit="10" transform="translate(1043.8125 -702.9765625)"/><g transform="translate(1093.5625 -682.7890625)"><text font-family="Arial" font-size="12px" font-style="normal" font-weight="normal" text-decoration="none" text-anchor="middle" fill="rgb(255,255,255)" fill-opacity="1" dy="0.9166666666666666em" transform="translate(12 0)">Item</text></g><g transform="translate(1220.140625 -864.0625)" class="y-group-node yfiles-expanded"><path d="M 166.671875 0H 329.34375A 4 4 0 0 1 333.34375 4V 246.125A 4 4 0 0 1 329.34375 250.125H 4A 4 4 0 0 1 0 246.125V 4A 4 4 0 0 1 4 0z" fill="rgb(255,255,255)" fill-opacity="1" transform="translate(0 0)" class="yfiles-group-node-tab-background"/><path d="M 166.671875 3H 328.34375A 2 2 0 0 1 330.34375 5V 245.125A 2 2 0 0 1 328.34375 247.125H 5A 2 2 0 0 1 3 245.125V 5A 2 2 0 0 1 5 3z" fill="rgb(255,255,255)" fill-opacity="1" transform="translate(0 0)" class="yfiles-content-transparent yfiles-group-node-content"/><path d="M 166.671875 0H 329.34375A 4 4 0 0 1 333.34375 4V 246.125A 4 4 0 0 1 329.34375 250.125H 4A 4 4 0 0 1 0 246.125V 4A 4 4 0 0 1 4 0z" fill="none" stroke="rgb(204,204,204)" stroke-opacity="1" stroke-width="2" stroke-linecap="square" stroke-linejoin="miter" stroke-miterlimit="10" transform="translate(0 0)" class="yfiles-group-node-stroke"/></g><g transform="translate(1337.3125 -883.0625)"><text font-family="Arial" font-size="12px" font-style="normal" font-weight="normal" text-decoration="none" text-anchor="start" fill="rgb(0,56,99)" fill-opacity="1" xml:space="preserve" transform="translate(0 0)"><tspan class="yfiles-label-p" dy="11px" x="0"><tspan class="yfiles-label-strong" style="font-weight: bold;">Project (Memory)</tspan></tspan></text></g><g><path fill="none" stroke="rgb(0,0,0)" d="M 1304.4375,-766.1875 L 1304.4375,-817.75 L 1396.5625,-817.75" stroke-opacity="1" stroke-width="1" stroke-dasharray="2,2" stroke-dashoffset="1" stroke-linecap="square" stroke-linejoin="miter" stroke-miterlimit="10"/><use xlink:href="#ygc50_0" transform="matrix(-0.75 0 0 -0.75 1399.78216991411 -817.75)" style="pointer-events: none;"/></g><g><path fill="none" stroke="rgb(0,0,0)" d="M 1366.1875,-739 L 1396.5625,-739" stroke-opacity="1" stroke-width="1" stroke-dasharray="2,2" stroke-dashoffset="1" stroke-linecap="square" stroke-linejoin="miter" stroke-miterlimit="10"/><use xlink:href="#ygc50_0" transform="matrix(-0.75 0 0 -0.75 1399.78216991411 -739)" style="pointer-events: none;"/></g><g><path fill="none" stroke="rgb(0,0,0)" d="M 1304.4375,-711.8125 L 1304.4375,-660.25 L 1396.5625,-660.25" stroke-opacity="1" stroke-width="1" stroke-dasharray="2,2" stroke-dashoffset="1" stroke-linecap="square" stroke-linejoin="miter" stroke-miterlimit="10"/><use xlink:href="#ygc50_0" transform="matrix(-0.75 0 0 -0.75 1399.78216991411 -660.25)" style="pointer-events: none;"/></g><path fill="rgb(220,127,20)" stroke="rgb(102,56,0)" d="M 0,10 C 0,4.47715250169206 4.47715250169206,0 10,0 L 113.5,0 C 119.02284749830794,0 123.5,4.47715250169206 123.5,10 L 123.5,44.375 C 123.5,49.89784749830794 119.02284749830794,54.375 113.5,54.375 L 10,54.375 C 4.47715250169206,54.375 0,49.89784749830794 0,44.375 Z" fill-opacity="1" stroke-opacity="0" stroke-width="1" stroke-linecap="butt" stroke-linejoin="miter" stroke-miterlimit="10" transform="translate(1242.6875 -766.1875)"/><g transform="translate(1263.9375 -755)"><text font-family="Arial" font-size="12px" font-style="normal" font-weight="normal" text-decoration="none" text-anchor="middle" fill="rgb(255,255,255)" fill-opacity="1" transform="translate(40.5 0)"><tspan dy="0.9166666666666666em" x="0">Block Type</tspan><tspan dy="1.5em" x="0">(BuildingBlock)</tspan></text></g><path fill="rgb(43,177,111)" stroke="rgb(102,56,0)" d="M 0,10 C 0,4.47715250169206 4.47715250169206,0 10,0 L 113.5,0 C 119.02284749830794,0 123.5,4.47715250169206 123.5,10 L 123.5,44.375 C 123.5,49.89784749830794 119.02284749830794,54.375 113.5,54.375 L 10,54.375 C 4.47715250169206,54.375 0,49.89784749830794 0,44.375 Z" fill-opacity="1" stroke-opacity="0" stroke-width="1" stroke-linecap="butt" stroke-linejoin="miter" stroke-miterlimit="10" transform="translate(1401.3125 -844.9375)"/><g transform="translate(1430.0625 -824.75)"><text font-family="Arial" font-size="12px" font-style="normal" font-weight="normal" text-decoration="none" text-anchor="middle" fill="rgb(255,255,255)" fill-opacity="1" dy="0.9166666666666666em" transform="translate(33 0)">Block Model</text></g><path fill="rgb(43,177,111)" stroke="rgb(102,56,0)" d="M 0,10 C 0,4.47715250169206 4.47715250169206,0 10,0 L 113.5,0 C 119.02284749830794,0 123.5,4.47715250169206 123.5,10 L 123.5,44.375 C 123.5,49.89784749830794 119.02284749830794,54.375 113.5,54.375 L 10,54.375 C 4.47715250169206,54.375 0,49.89784749830794 0,44.375 Z" fill-opacity="1" stroke-opacity="0" stroke-width="1" stroke-linecap="butt" stroke-linejoin="miter" stroke-miterlimit="10" transform="translate(1401.3125 -766.1875)"/><g transform="translate(1425.0625 -746)"><text font-family="Arial" font-size="12px" font-style="normal" font-weight="normal" text-decoration="none" text-anchor="middle" fill="rgb(255,255,255)" fill-opacity="1" dy="0.9166666666666666em" transform="translate(38 0)">Inventory Icon</text></g><path fill="rgb(43,177,111)" stroke="rgb(102,56,0)" d="M 0,10 C 0,4.47715250169206 4.47715250169206,0 10,0 L 113.5,0 C 119.02284749830794,0 123.5,4.47715250169206 123.5,10 L 123.5,44.375 C 123.5,49.89784749830794 119.02284749830794,54.375 113.5,54.375 L 10,54.375 C 4.47715250169206,54.375 0,49.89784749830794 0,44.375 Z" fill-opacity="1" stroke-opacity="0" stroke-width="1" stroke-linecap="butt" stroke-linejoin="miter" stroke-miterlimit="10" transform="translate(1401.3125 -687.4375)"/><g transform="translate(1457.5625 -667.25)"><text font-family="Arial" font-size="12px" font-style="normal" font-weight="normal" text-decoration="none" text-anchor="middle" fill="rgb(255,255,255)" fill-opacity="1" dy="0.9166666666666666em" transform="translate(5.5 0)">...</text></g><g><path fill="none" stroke="rgb(0,0,0)" d="M 1167.3125,-775.4251748114393 L 1238.0967068338605,-756.6224247088874" stroke-opacity="1" stroke-width="1" stroke-dasharray="2,2" stroke-dashoffset="1" stroke-linecap="square" stroke-linejoin="miter" stroke-miterlimit="10"/><use xlink:href="#ygc50_0" transform="matrix(-0.7248620788641469 -0.19254860847263278 0.19254860847263278 -0.7248620788641469 1241.2084623367914 -755.7958340932832)" style="pointer-events: none;"/></g><g><path fill="none" stroke="rgb(0,0,0)" d="M 1167.034592233397,-695.3275091632784 L 1238.4385667854356,-718.0227306474292" stroke-opacity="1" stroke-width="1" stroke-dasharray="2,2" stroke-dashoffset="1" stroke-linecap="square" stroke-linejoin="miter" stroke-miterlimit="10"/><use xlink:href="#ygc50_0" transform="matrix(-0.7147643654474998 0.22718252988826643 -0.22718252988826643 -0.7147643654474998 1241.5069738829145 -718.9980009894194)" style="pointer-events: none;"/></g></g></g></g><defs><path fill="rgb(0,0,0)" stroke="rgb(0,0,0)" d="M 5,-5 L 0,0 L 5,5 Z" fill-opacity="1" stroke-opacity="1" stroke-width="1" stroke-linecap="butt" stroke-linejoin="miter" stroke-miterlimit="10" id="ygc50_0"/></defs></svg>