<svg xmlns="http://www.w3.org/2000/svg" width="818px" height="549px" viewBox="0 0 818 549" xmlns:xlink="http://www.w3.org/1999/xlink" style="overflow: auto; display: block; width: 818px; height: 549px;"><rect width="818px" height="549px" fill="white"/><clipPath id="ygc93_1"><rect x="25" y="25" width="767.8" height="498.607"/></clipPath><g clip-path="url(#ygc93_1)"><g style="pointer-events:visiblePainted" transform="matrix(1.1 0 0 1.1 30.5 59.1)" image-rendering="auto" shape-rendering="auto"><g style="box-sizing:initial;"><g transform="translate(0 -7)" class="y-group-node yfiles-expanded"><path d="M 344 0H 684A 4 4 0 0 1 688 4V 300.291626984127A 4 4 0 0 1 684 304.291626984127H 4A 4 4 0 0 1 0 300.291626984127V 4A 4 4 0 0 1 4 0z" fill="rgb(255,255,255)" fill-opacity="1" transform="translate(0 0)" class="yfiles-group-node-tab-background"/><path d="M 344 3H 683A 2 2 0 0 1 685 5V 299.291626984127A 2 2 0 0 1 683 301.291626984127H 5A 2 2 0 0 1 3 299.291626984127V 5A 2 2 0 0 1 5 3z" fill="rgb(255,255,255)" fill-opacity="1" transform="translate(0 0)" class="yfiles-content-transparent yfiles-group-node-content"/><path d="M 344 0H 684A 4 4 0 0 1 688 4V 300.291626984127A 4 4 0 0 1 684 304.291626984127H 4A 4 4 0 0 1 0 300.291626984127V 4A 4 4 0 0 1 4 0z" fill="none" stroke="rgb(204,204,204)" stroke-opacity="1" stroke-width="2" stroke-linecap="square" stroke-linejoin="miter" stroke-miterlimit="10" transform="translate(0 0)" class="yfiles-group-node-stroke"/></g><g transform="translate(315.5 -26)"><text font-family="Arial" font-size="12px" font-style="normal" font-weight="normal" text-decoration="none" text-anchor="start" fill="rgb(0,56,99)" fill-opacity="1" xml:space="preserve" transform="translate(0 0)"><tspan class="yfiles-label-p" dy="11px" x="0"><tspan class="yfiles-label-strong" style="font-weight: bold;">Managers</tspan></tspan></text></g><g><path fill="none" stroke="rgb(0,0,0)" d="M 144.6251984126984,54.375 L 144.6251984126984,64.375 L 68.75,98.84162698412698 L 68.75,109.09162698412698" stroke-opacity="1" stroke-width="1" stroke-linecap="butt" stroke-linejoin="miter" stroke-miterlimit="10"/><use xlink:href="#ygc93_0" transform="matrix(0 -0.75 0.75 0 68.75 112.31129689823706)" style="pointer-events: none;"/></g><g><path fill="none" stroke="rgb(0,0,0)" d="M 237.2501984126984,54.375 L 237.2501984126984,64.375 L 409.5833333333333,98.84162698412698 L 409.5833333333333,109.09162698412698" stroke-opacity="1" stroke-width="1" stroke-linecap="butt" stroke-linejoin="miter" stroke-miterlimit="10"/><use xlink:href="#ygc93_0" transform="matrix(0 -0.75 0.75 0 409.5833333333333 112.31129689823706)" style="pointer-events: none;"/></g><g><path fill="none" stroke="rgb(0,0,0)" d="M 206.3751984126984,54.375 L 206.3751984126984,64.375 L 251.375,98.84162698412698 L 251.375,109.09162698412698" stroke-opacity="1" stroke-width="1" stroke-linecap="butt" stroke-linejoin="miter" stroke-miterlimit="10"/><use xlink:href="#ygc93_0" transform="matrix(0 -0.75 0.75 0 251.375 112.31129689823706)" style="pointer-events: none;"/></g><g><path fill="none" stroke="rgb(0,0,0)" d="M 175.5001984126984,54.375 L 175.5000051914282,231.16662698412983" stroke-opacity="1" stroke-width="1" stroke-linecap="butt" stroke-linejoin="miter" stroke-miterlimit="10"/><use xlink:href="#ygc93_0" transform="matrix(8.196991856413698e-7 -0.7499999999995521 0.7499999999995521 8.196991856413698e-7 175.5000016725471 234.386296898238)" style="pointer-events: none;"/></g><g><path fill="none" stroke="rgb(0,0,0)" d="M 409.5833333333333,54.375 L 409.5833333333333,64.375 L 313.125,98.84162698412698 L 313.125,109.09162698412698" stroke-opacity="1" stroke-width="1" stroke-linecap="butt" stroke-linejoin="miter" stroke-miterlimit="10"/><use xlink:href="#ygc93_0" transform="matrix(0 -0.75 0.75 0 313.125 112.31129689823706)" style="pointer-events: none;"/></g><g><path fill="none" stroke="rgb(0,0,0)" d="M 450.75,54.375 L 450.75,109.09162698412698" stroke-opacity="1" stroke-width="1" stroke-linecap="butt" stroke-linejoin="miter" stroke-miterlimit="10"/><use xlink:href="#ygc93_0" transform="matrix(0 -0.75 0.75 0 450.75 112.31129689823706)" style="pointer-events: none;"/></g><g><path fill="none" stroke="rgb(0,0,0)" d="M 491.9166666666667,54.375 L 491.9166666666667,64.375 L 588.375,98.84162698412698 L 588.375,109.09162698412698" stroke-opacity="1" stroke-width="1" stroke-linecap="butt" stroke-linejoin="miter" stroke-miterlimit="10"/><use xlink:href="#ygc93_0" transform="matrix(0 -0.75 0.75 0 588.375 112.31129689823706)" style="pointer-events: none;"/></g><g><path fill="none" stroke="rgb(0,0,0)" d="M 588.375,54.375 L 588.375,64.375 L 491.9166666666667,98.84162698412698 L 491.9166666666667,109.09162698412698" stroke-opacity="1" stroke-width="1" stroke-linecap="butt" stroke-linejoin="miter" stroke-miterlimit="10"/><use xlink:href="#ygc93_0" transform="matrix(0 -0.75 0.75 0 491.9166666666667 112.31129689823706)" style="pointer-events: none;"/></g><g><path fill="none" stroke="rgb(0,0,0)" d="M 650.125,54.375 L 650.125,109.09162698412698" stroke-opacity="1" stroke-width="1" stroke-linecap="butt" stroke-linejoin="miter" stroke-miterlimit="10"/><use xlink:href="#ygc93_0" transform="matrix(0 -0.75 0.75 0 650.125 112.31129689823706)" style="pointer-events: none;"/></g><g><path fill="none" stroke="rgb(0,0,0)" d="M 450.75,168.21662698412698 L 450.75,178.21662698412698 L 237.25,220.916626984127 L 237.25,231.166626984127" stroke-opacity="1" stroke-width="1" stroke-linecap="butt" stroke-linejoin="miter" stroke-miterlimit="10"/><use xlink:href="#ygc93_0" transform="matrix(0 -0.75 0.75 0 237.25 234.38629689823708)" style="pointer-events: none;"/></g><path fill="rgb(0,106,179)" stroke="rgb(102,56,0)" d="M 0,10 C 0,4.47715250169206 4.47715250169206,0 10,0 L 113.5,0 C 119.02284749830794,0 123.5,4.47715250169206 123.5,10 L 123.5,44.375 C 123.5,49.89784749830794 119.02284749830794,54.375 113.5,54.375 L 10,54.375 C 4.47715250169206,54.375 0,49.89784749830794 0,44.375 Z" fill-opacity="1" stroke-opacity="0" stroke-width="1" stroke-linecap="butt" stroke-linejoin="miter" stroke-miterlimit="10" transform="translate(220.5 113.84162698412698)"/><g transform="translate(246.75 134.02912698412698)"><text font-family="Arial" font-size="12px" font-style="normal" font-weight="normal" text-decoration="none" text-anchor="middle" fill="rgb(255,255,255)" fill-opacity="1" dy="0.9166666666666666em" transform="translate(35.5 0)">GridManager</text></g><path fill="rgb(0,106,179)" stroke="rgb(102,56,0)" d="M 0,10 C 0,4.47715250169206 4.47715250169206,0 10,0 L 113.5,0 C 119.02284749830794,0 123.5,4.47715250169206 123.5,10 L 123.5,44.375 C 123.5,49.89784749830794 119.02284749830794,54.375 113.5,54.375 L 10,54.375 C 4.47715250169206,54.375 0,49.89784749830794 0,44.375 Z" fill-opacity="1" stroke-opacity="0" stroke-width="1" stroke-linecap="butt" stroke-linejoin="miter" stroke-miterlimit="10" transform="translate(129.1876984126984 0)"/><g transform="translate(153.4376984126984 20.1875)"><text font-family="Arial" font-size="12px" font-style="normal" font-weight="normal" text-decoration="none" text-anchor="middle" fill="rgb(255,255,255)" fill-opacity="1" dy="0.9166666666666666em" transform="translate(37.5 0)">InputManager</text></g><path fill="rgb(0,106,179)" stroke="rgb(102,56,0)" d="M 0,10 C 0,4.47715250169206 4.47715250169206,0 10,0 L 113.5,0 C 119.02284749830794,0 123.5,4.47715250169206 123.5,10 L 123.5,44.375 C 123.5,49.89784749830794 119.02284749830794,54.375 113.5,54.375 L 10,54.375 C 4.47715250169206,54.375 0,49.89784749830794 0,44.375 Z" fill-opacity="1" stroke-opacity="0" stroke-width="1" stroke-linecap="butt" stroke-linejoin="miter" stroke-miterlimit="10" transform="translate(389 0)"/><g transform="translate(413.25 20.1875)"><text font-family="Arial" font-size="12px" font-style="normal" font-weight="normal" text-decoration="none" text-anchor="middle" fill="rgb(255,255,255)" fill-opacity="1" dy="0.9166666666666666em" transform="translate(37.5 0)">SaveManager</text></g><path fill="rgb(0,106,179)" stroke="rgb(102,56,0)" d="M 0,10 C 0,4.47715250169206 4.47715250169206,0 10,0 L 113.5,0 C 119.02284749830794,0 123.5,4.47715250169206 123.5,10 L 123.5,44.375 C 123.5,49.89784749830794 119.02284749830794,54.375 113.5,54.375 L 10,54.375 C 4.47715250169206,54.375 0,49.89784749830794 0,44.375 Z" fill-opacity="1" stroke-opacity="0" stroke-width="1" stroke-linecap="butt" stroke-linejoin="miter" stroke-miterlimit="10" transform="translate(389 113.84162698412698)"/><g transform="translate(402.25 134.02912698412698)"><text font-family="Arial" font-size="12px" font-style="normal" font-weight="normal" text-decoration="none" text-anchor="middle" fill="rgb(255,255,255)" fill-opacity="1" dy="0.9166666666666666em" transform="translate(48.5 0)">InventoryManager</text></g><path fill="rgb(0,106,179)" stroke="rgb(102,56,0)" d="M 0,10 C 0,4.47715250169206 4.47715250169206,0 10,0 L 113.5,0 C 119.02284749830794,0 123.5,4.47715250169206 123.5,10 L 123.5,44.375 C 123.5,49.89784749830794 119.02284749830794,54.375 113.5,54.375 L 10,54.375 C 4.47715250169206,54.375 0,49.89784749830794 0,44.375 Z" fill-opacity="1" stroke-opacity="0" stroke-width="1" stroke-linecap="butt" stroke-linejoin="miter" stroke-miterlimit="10" transform="translate(557.5 0)"/><g transform="translate(561.75 20.1875)"><text font-family="Arial" font-size="12px" font-style="normal" font-weight="normal" text-decoration="none" text-anchor="middle" fill="rgb(255,255,255)" fill-opacity="1" dy="0.9166666666666666em" transform="translate(57.5 0)">InventoryRandomizer</text></g><path fill="rgb(0,106,179)" stroke="rgb(102,56,0)" d="M 0,10 C 0,4.47715250169206 4.47715250169206,0 10,0 L 113.5,0 C 119.02284749830794,0 123.5,4.47715250169206 123.5,10 L 123.5,44.375 C 123.5,49.89784749830794 119.02284749830794,54.375 113.5,54.375 L 10,54.375 C 4.47715250169206,54.375 0,49.89784749830794 0,44.375 Z" fill-opacity="1" stroke-opacity="0" stroke-width="1" stroke-linecap="butt" stroke-linejoin="miter" stroke-miterlimit="10" transform="translate(557.5 113.84162698412698)"/><g transform="translate(576.75 125.02912698412698)"><text font-family="Arial" font-size="12px" font-style="normal" font-weight="normal" text-decoration="none" text-anchor="middle" fill="rgb(255,255,255)" fill-opacity="1" transform="translate(42.5 0)"><tspan dy="0.9166666666666666em" x="0">BlockReference</tspan><tspan dy="1.5em" x="0">Manager</tspan></text></g><path fill="rgb(0,106,179)" stroke="rgb(102,56,0)" d="M 0,10 C 0,4.47715250169206 4.47715250169206,0 10,0 L 113.5,0 C 119.02284749830794,0 123.5,4.47715250169206 123.5,10 L 123.5,44.375 C 123.5,49.89784749830794 119.02284749830794,54.375 113.5,54.375 L 10,54.375 C 4.47715250169206,54.375 0,49.89784749830794 0,44.375 Z" fill-opacity="1" stroke-opacity="0" stroke-width="1" stroke-linecap="butt" stroke-linejoin="miter" stroke-miterlimit="10" transform="translate(7 113.84162698412698)"/><g transform="translate(29.75 134.02912698412698)"><text font-family="Arial" font-size="12px" font-style="normal" font-weight="normal" text-decoration="none" text-anchor="middle" fill="rgb(255,255,255)" fill-opacity="1" dy="0.9166666666666666em" transform="translate(39 0)">MenuManager</text></g><path fill="rgb(0,106,179)" stroke="rgb(102,56,0)" d="M 0,10 C 0,4.47715250169206 4.47715250169206,0 10,0 L 113.5,0 C 119.02284749830794,0 123.5,4.47715250169206 123.5,10 L 123.5,44.375 C 123.5,49.89784749830794 119.02284749830794,54.375 113.5,54.375 L 10,54.375 C 4.47715250169206,54.375 0,49.89784749830794 0,44.375 Z" fill-opacity="1" stroke-opacity="0" stroke-width="1" stroke-linecap="butt" stroke-linejoin="miter" stroke-miterlimit="10" transform="translate(144.625 235.916626984127)"/><g transform="translate(166.375 256.104126984127)"><text font-family="Arial" font-size="12px" font-style="normal" font-weight="normal" text-decoration="none" text-anchor="middle" fill="rgb(255,255,255)" fill-opacity="1" dy="0.9166666666666666em" transform="translate(40 0)">GhostManager</text></g><g transform="translate(0 330.4375)" class="y-group-node yfiles-expanded"><path d="M 137.5625 0H 271.125A 4 4 0 0 1 275.125 4V 82.84162698412695A 4 4 0 0 1 271.125 86.84162698412695H 4A 4 4 0 0 1 0 82.84162698412695V 4A 4 4 0 0 1 4 0z" fill="rgb(255,255,255)" fill-opacity="1" transform="translate(0 0)" class="yfiles-group-node-tab-background"/><path d="M 137.5625 3H 270.125A 2 2 0 0 1 272.125 5V 81.84162698412695A 2 2 0 0 1 270.125 83.84162698412695H 5A 2 2 0 0 1 3 81.84162698412695V 5A 2 2 0 0 1 5 3z" fill="rgb(255,255,255)" fill-opacity="1" transform="translate(0 0)" class="yfiles-content-transparent yfiles-group-node-content"/><path d="M 137.5625 0H 271.125A 4 4 0 0 1 275.125 4V 82.84162698412695A 4 4 0 0 1 271.125 86.84162698412695H 4A 4 4 0 0 1 0 82.84162698412695V 4A 4 4 0 0 1 4 0z" fill="none" stroke="rgb(171,171,171)" stroke-opacity="1" stroke-width="2" stroke-dasharray="2,4" stroke-dashoffset="1" stroke-linecap="square" stroke-linejoin="miter" stroke-miterlimit="10" transform="translate(0 0)" class="yfiles-group-node-stroke"/></g><g><path fill="none" stroke="rgb(0,0,0)" d="M 35.25,381.3125 L 74.5,381.3125" stroke-opacity="1" stroke-width="1" stroke-linecap="butt" stroke-linejoin="miter" stroke-miterlimit="10"/><use xlink:href="#ygc93_0" transform="matrix(-0.75 0 0 -0.75 77.71966991411009 381.3125)" style="pointer-events: none;"/></g><rect fill="rgb(255,140,0)" stroke="rgb(255,255,255)" stroke-opacity="0" stroke-width="1" stroke-linecap="butt" stroke-linejoin="miter" stroke-miterlimit="10" fill-opacity="0" x="14" y="337.438" width="65.25" height="29.25" rx="0" ry="0"/><g transform="translate(23.125 345.0625)"><text font-family="Arial" font-size="12px" font-style="normal" font-weight="normal" text-decoration="none" text-anchor="middle" fill="rgb(0,56,99)" fill-opacity="1" xml:space="preserve" transform="translate(23.5 0)"><tspan class="yfiles-label-p" dy="11px" x="0"><tspan class="yfiles-label-strong" style="font-weight: bold;">Legend:</tspan></tspan></text></g><rect fill="rgb(255,140,0)" stroke="rgb(255,255,255)" stroke-opacity="0" stroke-width="1" stroke-linecap="butt" stroke-linejoin="miter" stroke-miterlimit="10" fill-opacity="0" x="7" y="366.688" width="28.25" height="29.25" rx="0" ry="0"/><g transform="translate(16.625 374.3125)"><text font-family="Arial" font-size="12px" font-style="normal" font-weight="normal" text-decoration="none" text-anchor="middle" fill="rgb(0,0,0)" fill-opacity="1" dy="0.9166666666666666em" transform="translate(4.5 0)">A</text></g><rect fill="rgb(255,140,0)" stroke="rgb(255,255,255)" stroke-opacity="0" stroke-width="1" stroke-linecap="butt" stroke-linejoin="miter" stroke-miterlimit="10" fill-opacity="0" x="79.25" y="366.688" width="28.25" height="29.25" rx="0" ry="0"/><g transform="translate(88.875 374.3125)"><text font-family="Arial" font-size="12px" font-style="normal" font-weight="normal" text-decoration="none" text-anchor="middle" fill="rgb(0,0,0)" fill-opacity="1" dy="0.9166666666666666em" transform="translate(4.5 0)">B</text></g><rect fill="rgb(255,140,0)" stroke="rgb(255,255,255)" stroke-opacity="0" stroke-width="1" stroke-linecap="butt" stroke-linejoin="miter" stroke-miterlimit="10" fill-opacity="0" x="151.625" y="366.688" width="60" height="29.25" rx="0" ry="0"/><g transform="translate(133.125 374.3125)"><text font-family="Arial" font-size="12px" font-style="normal" font-weight="normal" text-decoration="none" text-anchor="middle" fill="rgb(0,0,0)" fill-opacity="1" dy="0.9166666666666666em" transform="translate(48.5 0)">A has access to B</text></g></g></g></g><defs><path fill="rgb(0,0,0)" stroke="rgb(0,0,0)" d="M 5,-5 L 0,0 L 5,5 Z" fill-opacity="1" stroke-opacity="1" stroke-width="1" stroke-linecap="butt" stroke-linejoin="miter" stroke-miterlimit="10" id="ygc93_0"/></defs></svg>